<?xml version="1.0" encoding="UTF-8"?>
<!DOCTYPE svg PUBLIC "-//W3C//DTD SVG 1.1//EN" "http://www.w3.org/Graphics/SVG/1.1/DTD/svg11.dtd">
<!-- Creator: CorelDRAW -->
<svg xmlns="http://www.w3.org/2000/svg" xml:space="preserve" width="0.770283in" height="0.866953in" version="1.1" style="shape-rendering:geometricPrecision; text-rendering:geometricPrecision; image-rendering:optimizeQuality; fill-rule:evenodd; clip-rule:evenodd"
viewBox="0 0 831.15 935.46"
 xmlns:xlink="http://www.w3.org/1999/xlink"
 xmlns:xodm="http://www.corel.com/coreldraw/odm/2003">
 <defs>
  <style type="text/css">
   <![CDATA[
    .str0 {stroke:#ED2939;stroke-width:21.24;stroke-miterlimit:2.61313}
    .fil0 {fill:#ED2939}
   ]]>
  </style>
 </defs>
 <g id="PowerClip_x0020_Contents">
  <metadata id="CorelCorpID_0Corel-Layer"/>
  <g id="_2698343872416">
   <path class="fil0 str0" d="M120.65 170.67c-2.25,3.24 -1.09,1.48 -3.05,2.23l-1.76 0.88c-20.96,14.49 -79.1,40.85 -90.95,58.08 -7.24,10.52 -12.75,20.17 -13.55,36.62 -1.54,31.77 -0.07,67.52 -0.07,99.73l0 199.39c0,32.16 -1.5,68.02 0.08,99.73 0.82,16.55 6.23,25.81 13.62,36.53 10.51,15.27 72.82,47.46 91.12,58.06 4.53,1.55 1.95,-0.26 4.82,3.14 4.69,1.75 13.18,7.05 17.88,9.85l126.42 72.98c24.26,13.94 47.18,27.63 71.73,41.45 25.25,14.21 53.57,35.5 78.73,35.5 18.42,0.01 29.15,-6.81 41.78,-14.26 12.08,-7.13 23.56,-13.73 36.21,-20.93 24.34,-13.86 48.01,-27.73 72.42,-41.81l144.32 -82.83c2.89,-3.57 0,-1.51 4.63,-3.17 10.4,-5.16 21,-12.25 31.52,-18.1 16.87,-9.38 49.35,-25.94 59.92,-39.76 6.64,-8.69 12.78,-21.87 13.42,-36.64 1.39,-32.07 0.07,-67.32 0.07,-99.74l0 -199.39c0,-32.44 1.31,-67.65 -0.06,-99.74 -0.7,-16.32 -6.26,-25.9 -13.53,-36.51 -6.38,-9.29 -16.13,-14.69 -28.19,-21.68 -20.79,-12.06 -42.29,-23.87 -62.86,-36.43l-1.67 -0.87c-1.9,-0.73 -1.04,0.56 -3.16,-2.27 -4.53,-1.16 -30.48,-17.03 -36.39,-20.46 -12.15,-7.05 -24.18,-13.76 -36.15,-20.94l-65.52 -37.81c-4.69,-2.71 -5.05,-2.12 -5.05,2.15l0 65.78 36.62 21.53c10.15,6.09 20.34,11.78 30.64,17.75 5.01,2.91 27,16.36 30.84,17.34 1.8,2.39 1.07,1.3 2.67,1.92l1.42 0.73c17.43,10.65 35.65,20.65 53.26,30.87 10.22,5.93 18.48,10.5 23.88,18.36 6.16,8.99 10.88,17.12 11.47,30.94 1.17,27.19 0.06,57.03 0.06,84.51l0 168.96c0,27.48 1.12,57.34 -0.06,84.52 -0.54,12.51 -5.74,23.68 -11.38,31.04 -8.96,11.71 -36.48,25.75 -50.77,33.7 -8.92,4.95 -17.91,10.96 -26.71,15.33 -3.93,1.41 -1.48,-0.33 -3.93,2.69l-122.29 70.2c-20.68,11.93 -40.74,23.68 -61.36,35.42 -10.71,6.1 -20.44,11.7 -30.68,17.73 -10.71,6.32 -19.8,12.09 -35.41,12.09 -21.32,-0 -45.32,-18.04 -66.72,-30.08 -20.8,-11.71 -40.22,-23.31 -60.78,-35.13l-107.12 -61.84c-3.98,-2.37 -11.18,-6.86 -15.16,-8.35 -2.43,-2.88 -0.25,-1.34 -4.08,-2.66 -15.51,-8.98 -68.3,-36.26 -77.21,-49.19 -6.26,-9.08 -10.84,-16.92 -11.54,-30.96 -1.33,-26.87 -0.07,-57.25 -0.07,-84.5l0 -168.96c0,-27.29 -1.24,-57.58 0.06,-84.5 0.68,-13.94 5.35,-22.12 11.48,-31.03 10.04,-14.6 59.3,-36.93 77.06,-49.21l1.5 -0.74c1.67,-0.63 0.68,0.85 2.58,-1.89 3.49,-0.85 53.76,-30.48 61.05,-34.75 49.76,-29.13 104.2,-59.03 152.88,-88.24 27.49,-16.5 43.43,-17.09 71.53,-0.3l63.52 36.66c1.59,0.92 3.14,1.47 3.07,-1.02 -0.53,-19.61 0,-39.22 0,-58.84 0,-11.57 1.35,-8.84 -8.75,-14.67l-51.44 -29.69c-33.16,-19.82 -51.98,-19.11 -84.42,0.35 -57.44,34.48 -121.69,69.76 -180.42,104.14 -8.61,5.03 -67.92,40.02 -72.04,41.01z"/>
   <path class="fil0 str0" d="M567.41 146.1l49.68 32.73 0 326.01c0,54.3 -4.88,94.08 -14.24,119.33 -13.16,35.51 -35.68,62.96 -68.07,82.2 -32.27,19.24 -71.11,28.86 -116.41,28.86 -33.24,0 -63.08,-4.75 -89.62,-14.13 -26.43,-9.49 -47.98,-22.16 -64.66,-38.11 -16.56,-15.83 -31.91,-39.21 -45.91,-69.77l54.07 0c14.74,25.82 33.73,44.93 57.11,57.35 23.26,12.42 52.24,18.63 86.7,18.63 34.1,0 62.83,-6.33 86.22,-18.88 23.5,-12.66 40.18,-28.49 50.17,-47.49 9.98,-19.12 14.98,-49.92 14.98,-92.67l0 -19.97c-18.76,23.74 -41.77,42.01 -68.92,54.67 -27.03,12.78 -55.9,19.12 -86.34,19.12 -35.68,0 -69.16,-8.89 -100.58,-26.55 -31.41,-17.66 -55.65,-41.52 -72.82,-71.36 -17.17,-29.96 -25.7,-62.83 -25.7,-98.63 0,-35.93 8.89,-69.29 26.79,-100.34 17.78,-30.93 42.5,-55.53 74.04,-73.55 31.54,-18.02 64.78,-27.03 99.73,-27.03 28.98,0 56.14,5.96 81.22,17.78 25.08,11.81 49.31,31.54 72.57,59.18l0 -117.38zm-147.46 88.65c-28.25,0 -54.55,6.82 -78.79,20.46 -24.23,13.64 -43.22,32.51 -56.98,56.62 -13.76,24.11 -20.7,50.17 -20.7,78.3 0,42.5 14.24,77.57 42.74,105.45 28.49,27.76 65.51,41.64 110.81,41.64 45.91,0 82.81,-13.76 110.69,-41.28 27.88,-27.64 41.89,-63.81 41.89,-108.74 0,-29.23 -6.45,-55.28 -19.24,-78.18 -12.79,-22.89 -31.05,-41.04 -54.55,-54.31 -23.5,-13.27 -48.83,-19.97 -75.86,-19.97z"/>
  </g>
 </g>
</svg>
